<?xml version="1.0" encoding="UTF-8" standalone="no"?>
<!-- Created with Inkscape (http://www.inkscape.org/) -->

<svg
   version="1.1"
   id="svg225"
   width="500"
   height="500"
   viewBox="0 0 500 500"
   sodipodi:docname="upskillr.svg"
   inkscape:version="1.1.2 (b8e25be833, 2022-02-05)"
   xmlns:inkscape="http://www.inkscape.org/namespaces/inkscape"
   xmlns:sodipodi="http://sodipodi.sourceforge.net/DTD/sodipodi-0.dtd"
   xmlns="http://www.w3.org/2000/svg"
   xmlns:svg="http://www.w3.org/2000/svg">
  <defs
     id="defs229" />
  <sodipodi:namedview
     id="namedview227"
     pagecolor="#ffffff"
     bordercolor="#666666"
     borderopacity="1.0"
     inkscape:pageshadow="2"
     inkscape:pageopacity="0.0"
     inkscape:pagecheckerboard="0"
     showgrid="false"
     inkscape:zoom="1.616"
     inkscape:cx="249.69059"
     inkscape:cy="323.94802"
     inkscape:window-width="1920"
     inkscape:window-height="1001"
     inkscape:window-x="-9"
     inkscape:window-y="-9"
     inkscape:window-maximized="1"
     inkscape:current-layer="g231" />
  <g
     inkscape:groupmode="layer"
     inkscape:label="Image"
     id="g231">
    <g
       id="g369"
       transform="translate(-4.0748948,-20.420793)">
      <path
         style="fill:#fefefe"
         d="m 156.67489,296.75 c -1.55378,-1.13756 -1.68342,-3.90366 -1.44113,-30.75 l 0.26624,-29.5 5.90724,-0.3046 c 3.68032,-0.18976 6.17492,0.12852 6.6173,0.84431 0.51749,0.83732 1.54617,0.71652 3.7931,-0.44541 4.16875,-2.15574 13.73313,-2.07278 18.12864,0.15725 5.82065,2.95307 7.99619,8.72883 8.00359,21.24845 0.007,11.96323 -1.54427,16.79803 -6.81233,21.23081 -4.78239,4.02412 -15.74524,4.86822 -19.88754,1.53127 -0.98095,-0.79023 -1.25,0.82381 -1.25,7.49884 0,7.97552 -0.14028,8.54341 -2.25,9.10879 -3.76718,1.00957 -9.27028,0.70164 -11.07511,-0.61971 z m 24.64145,-30.96171 c 2.7247,-3.66319 2.72189,-10.91983 -0.006,-14.57658 -2.72443,-3.65258 -4.46381,-3.79519 -8.17734,-0.67046 -2.75784,2.32057 -3.13335,3.2485 -3.13335,7.74292 0,4.19693 0.48541,5.61305 2.72542,7.95112 3.25289,3.39528 5.83285,3.26104 8.59092,-0.447 z M 110,282.37993 C 102.86777,281.03066 97.331496,277.22781 94.160724,271.5 92.749521,268.95075 92.451837,264.33061 92.179442,240.75 L 91.858884,213 h -2.429442 c -4.211352,0 -3.061746,-3.94387 2.852003,-9.78416 6.882337,-6.79685 8.733245,-6.78901 15.502715,0.0656 C 113.93342,209.50805 114.72959,213 110,213 h -3 v 23.54966 c 0,24.78178 0.29837,26.69543 4.79711,30.76673 3.89572,3.52557 10.60162,2.05641 13.95289,-3.05686 1.50714,-2.29956 1.76806,-5.45182 1.88016,-22.71482 l 0.13017,-20.04471 7.11983,-0.29381 7.11984,-0.29381 -0.006,22.29381 c -0.003,12.2616 -0.46908,23.96271 -1.03559,26.00248 -1.23288,4.43912 -5.83497,9.29491 -10.75927,11.35242 -3.71702,1.55306 -15.83613,2.64432 -20.19956,1.81884 z m 101.82779,-0.95716 c -3.89764,-1.19954 -4.78117,-1.93401 -5.32945,-4.43035 C 206.13685,275.34659 206.1376,272.65 206.5,271 c 0.53202,-2.42227 1.17319,-2.99881 3.32946,-2.99384 1.46879,0.003 3.95948,0.67839 5.53485,1.5 3.59011,1.87238 7.04319,1.91269 8.54776,0.0998 1.57821,-1.90163 -0.42169,-3.79396 -5.93132,-5.6123 -2.3561,-0.77759 -5.84045,-2.88187 -7.74298,-4.67619 -3.42681,-3.2319 -3.45568,-3.33121 -3.08749,-10.62233 0.41051,-8.12927 1.38608,-9.76781 7.28256,-12.23151 4.12626,-1.72407 14.93738,-1.92772 19.41794,-0.36579 3.05258,1.06413 3.14922,1.27894 3.14922,7 0,6.7653 -0.32383,6.93491 -8.02105,4.2011 -4.01832,-1.42718 -5.04823,-1.48633 -6.39654,-0.36732 -2.24172,1.86046 -0.64088,3.48873 5.64132,5.738 9.57283,3.42743 13.42129,10.50755 10.8672,19.99269 -1.34985,5.01296 -3.59354,7.08279 -9.6553,8.90711 -5.88915,1.77237 -11.52495,1.72544 -17.60784,-0.14664 z m 38.88117,-0.0471 C 250.31903,280.9857 250,266.34167 250,248.83333 V 217 h 7 7 v 15.68774 15.68774 l 4.59818,-6.18774 L 273.19637,236 H 280.59818 288 v 3.09632 c 0,2.3271 -1.36636,4.65262 -5.5,9.3609 -3.025,3.44552 -5.5,6.58783 -5.5,6.98291 0,0.39508 2.73034,4.93309 6.06743,10.08447 4.85363,7.49243 6.00393,10.02725 5.75,12.67077 L 288.5,281.5 l -6.74212,0.29551 -6.74213,0.29551 -5.25787,-8.29517 -5.25788,-8.29516 -0.5,7.99965 -0.5,7.99966 -6.04104,0.29229 c -3.32257,0.16076 -6.36007,-0.0267 -6.75,-0.41666 z M 298.23,281.18722 c -0.9768,-0.63836 -1.20767,-5.89258 -1,-22.7586 L 297.5,236.5 l 7.26889,-0.29419 7.26889,-0.29419 -0.26889,22.79419 L 311.5,281.5 l -6,0.25859 c -3.3,0.14223 -6.5715,-0.11489 -7.27,-0.57137 z m 26.91399,-0.51372 c -0.85488,-1.03007 -1.10145,-9.79352 -0.90863,-32.2936 L 324.5,217.5 l 7.26391,-0.29409 7.26391,-0.29409 -0.26391,32.29409 L 338.5,281.5 l -6.09137,0.2936 c -4.31988,0.20822 -6.43258,-0.11753 -7.26464,-1.1201 z m 26.52268,0.65983 C 351.3,280.96667 351,266.32195 351,248.78952 v -31.87714 l 7.25,0.29381 7.25,0.29381 0.2645,31.43202 c 0.20601,24.48057 -0.0152,31.60954 -1,32.23469 -1.52818,0.97004 -12.15917,1.10529 -13.09783,0.16662 z m 27.58333,0.0267 c -0.94737,-0.39919 -1.25,-5.97524 -1.25,-23.0316 v -22.5049 l 7.25,0.23274 c 3.9875,0.12801 7.98218,-0.0842 8.87706,-0.47157 0.89488,-0.38738 3.80527,-0.56491 6.46752,-0.39451 4.48127,0.28682 4.90776,0.54576 5.74743,3.48947 0.49883,1.74881 0.60555,4.78631 0.23716,6.75 C 405.94821,248.793 405.68501,249 402.03945,249 c -3.00272,0 -4.50515,0.672 -6.70468,2.99885 -2.75342,2.91278 -2.84912,3.37914 -3.33477,16.25 L 391.5,281.5 386,281.69335 c -3.025,0.10634 -6.0625,-0.0437 -6.75,-0.33334 z m -81,-49.02229 c -0.80114,-0.32327 -1.25,-2.61636 -1.25,-6.38587 0,-4.99124 0.3248,-6.05531 2.14581,-7.02989 2.10373,-1.12588 11.28526,-0.82422 12.52086,0.41137 0.34248,0.34248 0.832,2.80103 1.08782,5.46344 0.62382,6.49217 -1.10423,8.23057 -8.07592,8.12428 -2.84821,-0.0434 -5.74107,-0.30592 -6.42857,-0.58333 z"
         id="path383" />
      <path
         style="fill:#fdfdfe"
         d="m 160.46528,296.98046 c -4.41672,-1.64263 -4.51137,-2.33838 -4.23158,-31.10257 L 156.5,238.5 l 4.75,-0.30479 c 3.76064,-0.24131 4.75,0.019 4.75,1.25 0,2.17805 1.80991,1.9252 6.85207,-0.95726 4.38082,-2.50438 10.8937,-3.311 12.69793,-1.57263 0.5225,0.50343 2.02904,1.06593 3.34787,1.25 2.52294,0.35214 2.73224,0.62629 6.03137,7.9004 1.54942,3.41626 2.07076,6.60982 2.07076,12.6849 0,9.92097 -0.70146,11.88233 -6.41106,17.92609 -4.27184,4.52186 -4.74904,4.75186 -9.85889,4.75186 -4.01876,0 -6.07363,-0.55367 -8.16744,-2.20066 -1.53873,-1.21036 -3.19479,-1.95523 -3.68015,-1.65527 -0.48535,0.29997 -0.88246,4.28874 -0.88246,8.86393 0,5.47232 -0.42769,8.64948 -1.25,9.28575 -2.1183,1.63907 -4.16096,2.04799 -6.28472,1.25814 z M 164,281 c 0,-7.32517 0.33435,-10.0041 1.25,-10.01531 0.94955,-0.0116 0.93389,-0.21577 -0.0651,-0.84927 -0.99088,-0.62834 -1.23744,-3.58372 -1,-11.98673 0.17332,-6.13402 -0.0224,-11.15185 -0.43487,-11.15073 -0.4125,0.001 -0.75,-0.8714 -0.75,-1.93894 0,-1.06754 -0.45,-2.2191 -1,-2.55902 -0.6563,-0.40561 -1,7.82295 -1,23.94098 0,21.16357 0.20738,24.55902 1.5,24.55902 1.23333,0 1.5,-1.77778 1.5,-10 z m 17.75,-5.68933 c -0.9625,-0.25152 -2.5375,-0.25152 -3.5,0 -0.9625,0.25153 -0.175,0.45733 1.75,0.45733 1.925,0 2.7125,-0.2058 1.75,-0.45733 z m 0.30892,-7.19593 c 3.63969,-3.4881 3.15821,-16.65939 -0.72056,-19.71168 -2.46979,-1.94352 -7.99752,-1.07189 -10.98176,1.73165 -1.93302,1.81598 -2.35436,3.21611 -2.34413,7.7896 0.0114,5.10871 0.346,5.93482 3.99488,9.86361 4.24821,4.57409 5.5747,4.61722 10.05157,0.32682 z m 10.07566,-9.4574 c -0.008,-4.78673 -2.63442,-13.49083 -3.73819,-12.38707 -0.26754,0.26755 0.044,2.59305 0.69233,5.16777 1.08687,4.31637 0.84204,11.42523 -0.60483,17.56196 -0.41465,1.75865 0.0405,1.3605 1.53476,-1.34266 1.39953,-2.53173 2.12138,-5.60211 2.11593,-9 z M 182.25,241.33772 c -0.6875,-0.27741 -1.8125,-0.27741 -2.5,0 -0.6875,0.27741 -0.125,0.50439 1.25,0.50439 1.375,0 1.9375,-0.22698 1.25,-0.50439 z M 110,280.65361 c -1.925,-0.75788 -4.6455,-1.84388 -6.04557,-2.41331 -1.40006,-0.56944 -4.271962,-3.14219 -6.382007,-5.71722 l -3.836444,-4.68188 0.182398,-27.28552 0.182398,-27.28553 -3.125628,-0.62512 c -1.810038,-0.36201 -2.988733,-1.15545 -2.800388,-1.88508 0.178883,-0.69297 2.912741,-3.68773 6.075241,-6.65501 l 5.75,-5.39505 5.75,5.39505 c 6.62425,6.21534 7.2096,8.25433 2.5,8.70842 l -3.25,0.31336 0.004,23.68664 c 0.004,25.4809 -0.0935,24.93441 5.68387,31.85889 4.95091,5.93394 19.51305,-0.0403 17.70056,-7.26177 -0.33633,-1.34005 -0.0761,-3.08152 0.57818,-3.86994 0.83951,-1.01154 1.11393,-6.37955 0.93229,-18.23701 L 129.64125,222.5 h 5.42937 c 4.92058,0 5.385,0.18742 4.95578,2 -0.26048,1.1 -0.49927,11.45 -0.53065,23 -0.0701,25.79655 -0.24033,26.34623 -9.49575,30.65606 -7.5934,3.5359 -15.01015,4.46209 -20,2.49755 z m 12.91667,-5.29725 c 0.22916,-0.196 -2.69584,-0.29712 -6.5,-0.22472 -5.51595,0.10498 -6.20787,0.2728 -3.41667,0.82866 3.17522,0.63233 8.8772,0.28507 9.91667,-0.60394 z M 102.78518,268.75 c -0.93154,-1.63088 -1.42276,-10.29913 -1.78518,-31.50197 -0.3206,-18.75649 -0.8588,-29.16156 -1.5,-29 -0.636316,0.16033 -1,10.25328 -1,27.75197 0,27.06464 0.03691,27.55937 2.33156,31.25 2.49972,4.02047 4.09131,5.24249 1.95362,1.5 z m 34.13732,-26 C 136.99685,227.64083 136.91862,227 135,227 c -1.93823,0 -1.99761,0.64083 -1.9225,20.75 l 0.0775,20.75 1.84499,-5 c 1.48734,-4.03074 1.86002,-8.05317 1.9225,-20.75 z m 77.17116,37.94356 c -4.73125,-1.6578 -7.67086,-5.74653 -6.16049,-8.56868 1.32853,-2.48239 5.23832,-2.82811 7.06683,-0.62488 1.53036,1.84397 6.98789,1.96056 9.39466,0.20069 2.4628,-1.80085 1.83577,-7.06435 -0.89466,-7.51007 -3.23421,-0.52797 -7.75952,-2.87844 -11.33205,-5.88593 -3.13867,-2.64226 -3.33029,-3.17273 -3.30175,-9.14005 0.0167,-3.48425 0.58102,-6.99858 1.25412,-7.80962 3.93884,-4.74601 17.87503,-7.14786 22.53509,-3.88383 2.40284,1.68302 3.45212,5.58529 2.13477,7.93925 -0.91974,1.64349 -5.20738,1.32397 -7.24018,-0.53955 -1.66524,-1.52657 -4.13401,-0.94259 -6.45368,1.52659 -2.1816,2.3222 -2.19579,2.46348 -0.45208,4.5 0.99013,1.15638 2.31522,2.10252 2.94465,2.10252 0.62942,0 3.38903,0.93283 6.13247,2.07295 4.23793,1.7612 5.31068,2.78679 7.13335,6.81975 2.35126,5.20256 2.67824,7.65989 1.14529,8.6073 -0.55,0.33992 -1.01414,1.60398 -1.03142,2.80902 -0.0384,2.67727 -3.02389,4.95143 -9.29538,7.08066 -5.53553,1.87936 -8.87024,1.95398 -13.57954,0.30388 z M 233,267.5 c 0,-1.31008 -0.45,-2.66008 -1,-3 -0.59628,-0.36852 -1,0.84262 -1,3 0,2.15738 0.40372,3.36852 1,3 0.55,-0.33992 1,-1.68992 1,-3 z m -18.03041,-18.25 c -0.0248,-3.05996 -0.22004,-3.42427 -1.06098,-1.97982 -0.56682,0.9736 -0.74781,2.6611 -0.40221,3.75 0.95988,3.02429 1.4968,2.37472 1.46319,-1.77018 z m 37.52424,31.48661 c -1.27247,-0.71211 -1.49156,-5.1629 -1.47852,-30.0363 0.008,-16.06017 0.41046,-29.82426 0.89341,-30.58686 1.24136,-1.96016 11.06767,-2.83234 11.16128,-0.99068 0.0385,0.75748 0.01,8.01473 -0.0643,16.12723 -0.11556,12.68925 0.0814,14.75 1.40968,14.75 0.84919,0 2.40934,-1.6875 3.467,-3.75 3.36038,-6.55299 5.81226,-8.10106 12.5349,-7.91435 7.01531,0.19485 7.90092,1.47442 3.64501,5.26645 -1.68425,1.50067 -3.06227,3.33876 -3.06227,4.08464 0,0.74587 -1.13579,1.87364 -2.52398,2.50614 -3.10827,1.41622 -4.25014,5.25611 -2.25924,7.59741 0.79961,0.94034 2.03695,3.18287 2.74966,4.98341 0.71271,1.80053 1.84347,3.60053 2.5128,4 2.76043,1.64747 6.75079,9.17366 6.14453,11.58918 -0.7412,2.95319 -2.00396,3.47223 -6.97135,2.86549 -3.30852,-0.40412 -4.21921,-1.10525 -6.5,-5.00427 -1.45883,-2.49387 -3.88214,-5.92701 -5.38513,-7.6292 -1.50299,-1.7022 -3.41323,-3.9949 -4.24497,-5.0949 -1.38223,-1.82803 -1.49119,-1.25241 -1.26729,6.69462 0.16339,5.79917 -0.16096,9.10234 -0.97396,9.91893 -1.42814,1.43444 -7.6317,1.82936 -9.78724,0.62306 z M 258,249.5 c 0,-22.88889 -0.2044,-26.5 -1.5,-26.5 -1.2956,0 -1.5,3.61111 -1.5,26.5 0,22.88889 0.2044,26.5 1.5,26.5 1.2956,0 1.5,-3.61111 1.5,-26.5 z m 68.83115,30.33115 C 325.1404,278.1404 325,275.77452 325,248.97525 V 219.9505 l 2.69169,-1.02338 c 1.48044,-0.56286 4.51794,-0.88922 6.75,-0.72525 L 338.5,218.5 l 0.26456,29.53896 c 0.20257,22.61838 -0.0325,29.94518 -1.00324,31.27278 -1.84085,2.51751 -8.61038,2.8392 -10.93017,0.51941 z M 333,249.41667 c 0,-20.82195 -0.27091,-26.49315 -1.25,-26.16719 -0.94563,0.31482 -1.31525,6.47897 -1.51798,25.3153 -0.14738,13.69453 -0.049,25.46976 0.21862,26.16718 C 330.71826,275.42938 331.40135,276 331.96862,276 332.65126,276 333,267.01151 333,249.41667 Z m 24.5,31.78077 c -1.65,-0.19323 -3.31414,-0.65421 -3.69809,-1.02439 C 353.41796,279.80287 353.03841,265.775 352.95845,249 l -0.14537,-30.5 5.28514,0.1519 c 3.79861,0.10918 5.65314,0.65516 6.59347,1.94113 1.00086,1.36877 1.3051,8.03046 1.29466,28.3481 -0.008,14.60738 -0.27065,27.51652 -0.58476,28.68697 -0.69741,2.59879 -3.88681,4.03951 -7.90159,3.56934 z M 360,249.5 c 0,-22.88889 -0.2044,-26.5 -1.5,-26.5 -1.2956,0 -1.5,3.61111 -1.5,26.5 0,22.88889 0.2044,26.5 1.5,26.5 1.2956,0 1.5,-3.61111 1.5,-26.5 z m -60.8991,30.12158 c -0.79516,-0.95812 -1.06119,-7.43771 -0.87245,-21.25 L 298.5,238.5 h 3.66509 c 2.01579,0 4.00329,-0.3375 4.41666,-0.75 0.41337,-0.4125 1.46408,-0.75032 2.33492,-0.75071 1.40304,-6.2e-4 1.54983,2.36208 1.28911,20.75 -0.16182,11.41289 -0.48519,21.31321 -0.71861,22.00071 -0.5861,1.72625 -8.93268,1.62305 -10.38627,-0.12842 z M 306,259 c 0,-14.44444 -0.22549,-17 -1.5,-17 -1.27451,0 -1.5,2.55556 -1.5,17 0,14.44444 0.22549,17 1.5,17 1.27451,0 1.5,-2.55556 1.5,-17 z m 74.61398,21.18442 c -0.27723,-0.44857 -0.57984,-10.01107 -0.67246,-21.25 L 379.77313,238.5 l 2.36343,-0.11462 c 1.29989,-0.063 3.15667,-0.45088 4.12617,-0.86188 0.99166,-0.42037 2.3751,-0.23904 3.16263,0.41455 1.07469,0.89192 2.26162,0.80175 5.10939,-0.38812 2.04022,-0.85246 4.75403,-1.54993 6.03067,-1.54993 2.62795,0 5.43458,3.39173 5.43458,6.56752 0,2.83959 -3.35514,5.77192 -5.73862,5.01544 -1.27328,-0.40413 -3.07529,0.46435 -5.57166,2.68527 L 391,253.55081 v 12.14281 c 0,6.67854 -0.27314,12.85461 -0.60699,13.72459 -0.64847,1.68988 -8.81282,2.32958 -9.77903,0.76621 z M 386,263.2 c 0,-8.62222 0.39167,-13.19167 1.2,-14 0.93333,-0.93333 0.8363,-1.2 -0.43664,-1.2 -1.09707,0 -1.76961,-1.07147 -2.03996,-3.25 -0.22183,-1.7875 -0.47534,4.5125 -0.56336,14 -0.1015,10.94002 0.20576,17.25 0.83996,17.25 0.61458,0 1,-4.93333 1,-12.8 z M 400,242 c 0,-0.55 -0.19844,-1 -0.44098,-1 -0.24254,0 -0.7191,0.45 -1.05902,1 -0.33992,0.55 -0.14148,1 0.44098,1 C 399.52344,243 400,242.55 400,242 Z M 299.19343,230.79343 C 298.53704,230.13704 298,228.60147 298,227.38104 c 0,-2.94177 3.0595,-8.16334 5.09509,-8.69566 2.37288,-0.62052 7.57939,1.83786 8.82617,4.1675 1.42925,2.67058 1.35602,3.22872 -0.78972,6.01898 -2.09227,2.72074 -9.88467,3.97501 -11.93811,1.92157 z M 305.5,226 c 0.33992,-0.55 -0.11008,-1 -1,-1 -0.88992,0 -1.33992,0.45 -1,1 0.33992,0.55 0.78992,1 1,1 0.21008,0 0.66008,-0.45 1,-1 z"
         id="path381" />
      <path
         style="fill:#fdfdfd"
         d="m 157.63864,295.15319 c -1.4906,-1.64709 -1.64254,-4.8102 -1.40499,-29.25 L 156.5,238.5 l 4.75,-0.30479 c 4.22444,-0.27107 4.75,-0.0774 4.75,1.75 0,1.13013 0.2052,2.05479 0.45599,2.05479 0.2508,0 2.81185,-1.38906 5.69122,-3.0868 4.05765,-2.39248 6.03572,-2.97476 8.79401,-2.5887 6.45793,0.90388 10.35693,2.19752 11.14258,3.69698 3.87071,7.38747 4.77126,10.93528 4.79175,18.87756 0.0239,9.2734 -1.09762,12.46987 -6.26047,17.84277 -5.44698,5.66859 -12.88434,6.53032 -18.48262,2.1415 -1.30214,-1.02083 -2.76464,-1.61063 -3.25,-1.31067 -0.48535,0.29997 -0.88246,4.25384 -0.88246,8.78638 0,5.07632 -0.46082,8.7018 -1.2,9.44098 -1.8302,1.8302 -7.26708,1.44635 -9.16136,-0.64681 z M 164,281 c 0,-7.32517 0.33435,-10.0041 1.25,-10.01531 0.94955,-0.0116 0.93389,-0.21577 -0.0651,-0.84927 -0.99088,-0.62834 -1.23744,-3.58372 -1,-11.98673 0.17332,-6.13402 -0.0224,-11.15185 -0.43487,-11.15073 -0.4125,0.001 -0.75,-0.8714 -0.75,-1.93894 0,-1.06754 -0.45,-2.2191 -1,-2.55902 -0.6563,-0.40561 -1,7.82295 -1,23.94098 0,21.16357 0.20738,24.55902 1.5,24.55902 1.23333,0 1.5,-1.77778 1.5,-10 z m 17.75,-5.68933 c -0.9625,-0.25152 -2.5375,-0.25152 -3.5,0 -0.9625,0.25153 -0.175,0.45733 1.75,0.45733 1.925,0 2.7125,-0.2058 1.75,-0.45733 z m 1.2395,-7.79802 c 0.85938,-1.03549 1.34383,-4.29909 1.34383,-9.05303 0,-9.39347 -1.75129,-11.93515 -7.67609,-11.14047 -6.12534,0.82158 -8.6597,3.93066 -8.64477,10.60516 0.0114,5.1073 0.3465,5.93535 3.98889,9.85711 3.88108,4.17878 4.04437,4.24629 6.81036,2.81594 1.55867,-0.80602 3.43867,-2.19414 4.17778,-3.08471 z m 9.14508,-8.85531 c -0.008,-4.78673 -2.63442,-13.49083 -3.73819,-12.38707 -0.26754,0.26755 0.044,2.59305 0.69233,5.16777 1.08687,4.31637 0.84204,11.42523 -0.60483,17.56196 -0.41465,1.75865 0.0405,1.3605 1.53476,-1.34266 1.39953,-2.53173 2.12138,-5.60211 2.11593,-9 z M 182.25,241.33772 c -0.6875,-0.27741 -1.8125,-0.27741 -2.5,0 -0.6875,0.27741 -0.125,0.50439 1.25,0.50439 1.375,0 1.9375,-0.22698 1.25,-0.50439 z m -70.75,39.72655 c -6.65553,-1.83245 -10.56723,-4.2723 -13.94778,-8.69967 -1.953721,-2.55871 -3.586667,-5.59999 -3.628769,-6.7584 -0.0421,-1.15841 -0.01096,-13.40622 0.0692,-27.21736 l 0.145749,-25.11116 -3.144441,-0.62889 c -4.199399,-0.83988 -3.662409,-2.21022 3.33957,-8.52222 l 5.833531,-5.25869 5.66647,5.31244 c 3.11656,2.92184 5.83382,5.70361 6.03835,6.18171 0.51862,1.21226 -1.93469,2.60437 -4.62188,2.62266 L 105,213 v 23.89081 23.89081 l 3.31014,4.80333 c 3.7516,5.44393 7.35222,6.99244 12.40713,5.33588 4.49516,-1.47311 8.45572,-6.3834 7.6709,-9.51035 -0.33633,-1.34005 -0.0761,-3.08152 0.57818,-3.86994 0.83951,-1.01154 1.11393,-6.37955 0.93229,-18.23701 L 129.64125,222.5 h 5.42937 c 4.91977,0 5.38515,0.18772 4.9582,2 -0.25915,1.1 -0.5043,11.45 -0.54478,23 -0.09,25.69436 -0.29775,26.38154 -9.22753,30.52934 -6.80061,3.15882 -14.04756,4.33143 -18.75651,3.03493 z m 11.41667,-5.70791 c 0.22916,-0.196 -2.69584,-0.29712 -6.5,-0.22472 -5.51595,0.10498 -6.20787,0.2728 -3.41667,0.82866 3.17522,0.63233 8.8772,0.28507 9.91667,-0.60394 z M 102.78518,268.75 c -0.93154,-1.63088 -1.42276,-10.29913 -1.78518,-31.50197 -0.3206,-18.75649 -0.8588,-29.16156 -1.5,-29 -0.636316,0.16033 -1,10.25328 -1,27.75197 0,27.06464 0.03691,27.55937 2.33156,31.25 2.49972,4.02047 4.09131,5.24249 1.95362,1.5 z m 34.13732,-26 C 136.99685,227.64083 136.91862,227 135,227 c -1.93823,0 -1.99761,0.64083 -1.9225,20.75 l 0.0775,20.75 1.84499,-5 c 1.48734,-4.03074 1.86002,-8.05317 1.9225,-20.75 z M 214.5,280.78678 c -5.50646,-1.93704 -8.11827,-5.65589 -6.34665,-9.03678 1.12346,-2.14397 5.15269,-2.2911 6.84665,-0.25 1.53036,1.84397 6.98789,1.96056 9.39466,0.20069 2.46544,-1.80278 1.83658,-7.07021 -0.89466,-7.49369 -2.96167,-0.4592 -6.53606,-2.29144 -10.75,-5.51045 -3.68422,-2.81436 -3.75,-2.98377 -3.75,-9.65813 0,-4.72375 0.44306,-7.16124 1.45425,-8.00045 8.18392,-6.79205 23.44246,-6.58977 24.76494,0.3283 0.71687,3.75008 -0.67854,5.3667 -4.18778,4.85165 -1.68074,-0.24668 -3.30194,-0.84663 -3.60267,-1.33322 -1.02268,-1.65473 -4.0732,-0.89206 -6.4189,1.60482 -2.27063,2.41698 -2.28576,2.54811 -0.51932,4.5 1.0007,1.10576 2.43082,2.01048 3.17804,2.01048 0.74722,0 2.13997,0.41246 3.09501,0.91659 0.95504,0.50412 3.09421,1.41533 4.75372,2.02492 2.19101,0.80483 3.64461,2.47579 5.30808,6.1018 2.05164,4.47215 2.15896,5.38303 1.02801,8.72507 -1.82475,5.39226 -4.2767,7.74156 -10.01358,9.59437 -5.72649,1.84944 -8.99261,1.95326 -13.3398,0.42403 z M 233,267.5 c 0,-1.31008 -0.45,-2.66008 -1,-3 -0.59628,-0.36852 -1,0.84262 -1,3 0,2.15738 0.40372,3.36852 1,3 0.55,-0.33992 1,-1.68992 1,-3 z m -18.03041,-18.25 c -0.0248,-3.05996 -0.22004,-3.42427 -1.06098,-1.97982 -0.56682,0.9736 -0.74781,2.6611 -0.40221,3.75 0.95988,3.02429 1.4968,2.37472 1.46319,-1.77018 z m 36.65578,30.21612 c -0.97645,-2.54459 -0.70326,-57.79472 0.29356,-59.36919 0.54625,-0.86279 2.75449,-1.44039 5.73469,-1.5 L 262.5,218.5 l 0.27477,16.25 c 0.16126,9.53689 0.67179,16.25 1.23581,16.25 0.52857,0 2.20493,-1.90677 3.72523,-4.23727 5.355,-8.20876 5.86134,-8.557 12.35271,-8.49586 6.76152,0.0637 7.79135,1.73793 3.41148,5.54618 -1.375,1.19555 -2.5,2.86135 -2.5,3.70178 0,0.84042 -1.13579,2.04555 -2.52398,2.67805 -3.21774,1.4661 -4.25949,5.28392 -2.09454,7.67616 0.89019,0.98364 1.61852,2.46676 1.61852,3.29581 0,0.82906 2.25,4.31093 5,7.7375 2.75,3.42656 5,6.83851 5,7.5821 0,3.57781 -1.23872,4.51555 -5.96485,4.51555 -4.6949,0 -4.79377,-0.0677 -8.39153,-5.75 -2.00237,-3.1625 -5.19872,-7.4921 -7.10301,-9.62134 l -3.46235,-3.87134 -0.28913,9.37134 L 262.5,280.5 l -5.12463,0.29791 c -3.99907,0.23248 -5.26198,-0.06 -5.75,-1.33179 z M 258,249.5 c 0,-22.88889 -0.2044,-26.5 -1.5,-26.5 -1.2956,0 -1.5,3.61111 -1.5,26.5 0,22.88889 0.2044,26.5 1.5,26.5 1.2956,0 1.5,-3.61111 1.5,-26.5 z m 41.14087,30.16973 c -0.84555,-1.01881 -1.10634,-7.10653 -0.91242,-21.29815 L 298.5,238.5 302,238.417 c 1.925,-0.0456 4.31775,-0.4429 5.31722,-0.88279 0.99947,-0.43988 2.12447,-0.40253 2.5,0.083 C 310.19275,238.10275 310.275,247.95 310,259.5 l -0.5,21 -4.58759,0.29816 c -3.05733,0.1987 -4.98251,-0.1777 -5.77154,-1.12843 z M 306,259 c 0,-14.44444 -0.22549,-17 -1.5,-17 -1.27451,0 -1.5,2.55556 -1.5,17 0,14.44444 0.22549,17 1.5,17 1.27451,0 1.5,-2.55556 1.5,-17 z m 20.03518,20.06574 c -1.36389,-2.54845 -1.41766,-58.71132 -0.057,-59.55224 0.53799,-0.3325 3.44848,-0.83271 6.46776,-1.11158 5.09475,-0.47058 5.53117,-0.3414 6.06763,1.79603 0.31792,1.2667 0.44493,15.03224 0.28224,30.59011 -0.33005,31.56334 0.0167,30.16928 -7.51061,30.19663 -3.15368,0.0115 -4.47543,-0.47166 -5.25,-1.91895 z M 333,249.41667 c 0,-20.82195 -0.27091,-26.49315 -1.25,-26.16719 -0.94563,0.31482 -1.31525,6.47897 -1.51798,25.3153 -0.14738,13.69453 -0.049,25.46976 0.21862,26.16718 C 330.71826,275.42938 331.40135,276 331.96862,276 332.65126,276 333,267.01151 333,249.41667 Z m 20.61151,30.76376 c -0.27859,-0.45077 -0.57399,-14.51327 -0.65645,-31.25 L 352.80513,218.5 l 4.34776,0.0472 c 8.44592,0.0917 7.84711,-2.25267 7.84711,30.72142 0,21.47996 -0.32122,29.6526 -1.2,30.53138 -1.34765,1.34765 -9.40478,1.6485 -10.18849,0.38043 z M 360,249.5 c 0,-22.88889 -0.2044,-26.5 -1.5,-26.5 -1.2956,0 -1.5,3.61111 -1.5,26.5 0,22.88889 0.2044,26.5 1.5,26.5 1.2956,0 1.5,-3.61111 1.5,-26.5 z m 20.66667,30.83333 C 380.3,279.96667 380,270.28452 380,258.81745 v -20.84922 l 2.77862,0.21172 c 1.52824,0.11645 3.34795,-0.14014 4.0438,-0.5702 0.69586,-0.43006 1.88116,-0.27072 2.63401,0.35409 1.03402,0.85816 2.27611,0.75693 5.07832,-0.41391 6.73663,-2.81474 9.59324,-1.87248 10.97151,3.61901 0.80713,3.21582 -2.32664,6.9523 -5.20055,6.20075 -1.15063,-0.30089 -3.33807,0.81072 -5.82421,2.95974 l -3.9815,3.44162 -0.24441,12.36447 c -0.13442,6.80047 -0.24692,12.92698 -0.25,13.61448 -0.006,1.32105 -8.09589,1.82637 -9.33892,0.58333 z M 386,263.2 c 0,-8.62222 0.39167,-13.19167 1.2,-14 0.93333,-0.93333 0.8363,-1.2 -0.43664,-1.2 -1.09707,0 -1.76961,-1.07147 -2.03996,-3.25 -0.22183,-1.7875 -0.47534,4.5125 -0.56336,14 -0.1015,10.94002 0.20576,17.25 0.83996,17.25 0.61458,0 1,-4.93333 1,-12.8 z M 400,242 c 0,-0.55 -0.19844,-1 -0.44098,-1 -0.24254,0 -0.7191,0.45 -1.05902,1 -0.33992,0.55 -0.14148,1 0.44098,1 C 399.52344,243 400,242.55 400,242 Z M 299.19153,230.79153 C 296.10301,227.70301 300.01095,219 304.48631,219 c 3.67557,0 5.47257,1.01979 6.99926,3.97209 1.41164,2.72982 1.27457,3.25479 -2.04638,7.83699 -0.73361,1.01221 -9.23246,0.99765 -10.24766,-0.0175 z M 305.5,226 c 0.33992,-0.55 -0.11008,-1 -1,-1 -0.88992,0 -1.33992,0.45 -1,1 0.33992,0.55 0.78992,1 1,1 0.21008,0 0.66008,-0.45 1,-1 z"
         id="path379" />
      <path
         style="fill:#fcfcfd"
         d="m 158.15738,294.66753 c -2.15575,-2.2947 -2.18692,-2.76009 -1.92431,-28.73674 0.24494,-24.22901 0.4111,-26.432 2.01693,-26.74086 1.63186,-0.31386 1.75,1.49107 1.75,26.73675 V 293 h 3.5 c 3.66423,0 4.31174,0.78826 2.3,2.8 -1.90083,1.90083 -5.26069,1.40297 -7.64262,-1.13247 z M 113.5,280 c -0.37381,-0.60483 1.00929,-1 3.5,-1 2.49071,0 3.87381,0.39517 3.5,1 -0.33992,0.55 -1.91492,1 -3.5,1 -1.58508,0 -3.16008,-0.45 -3.5,-1 z m 65.5,0.0453 c 0,-0.57491 0.69735,-1.0453 1.54966,-1.0453 0.85231,0 2.87731,-0.68656 4.5,-1.52568 2.56589,-1.32688 2.95034,-1.33457 2.95034,-0.059 0,1.82679 -0.57475,2.15507 -5.25,2.99867 -2.37325,0.42823 -3.75,0.29289 -3.75,-0.36866 z m 35.19232,-0.25271 c -4.163,-1.40333 -6.89675,-5.96309 -4.67872,-7.80389 0.80351,-0.66685 2.14166,-0.95124 2.97367,-0.63197 1.74011,0.66775 2.08062,2.76946 0.38773,2.39326 -0.61875,-0.1375 -1.32109,0.28203 -1.56077,0.9323 -0.75613,2.0515 3.85653,3.60757 10.88475,3.67192 3.73157,0.0342 6.41639,0.43041 5.96627,0.88053 -1.37668,1.37668 -10.46721,1.73961 -13.97293,0.55785 z m 38.47435,0.54073 C 250.88615,278.55282 252.20605,277 255.5,277 h 3.5 l 0.0997,-5.75 c 0.12174,-7.02261 1.14513,-11.28094 2.27266,-9.45655 1.50502,2.43517 2.00369,16.04853 0.64773,17.68237 -1.26264,1.52139 -8.06582,2.1451 -9.3534,0.85751 z m 24.36242,-1.27897 C 276.00383,277.13865 276.20369,277 279.9905,277 h 4.06086 l -1.5384,-2.75 c -0.84612,-1.5125 -2.07926,-3.51592 -2.74031,-4.45204 -2.56511,-3.63248 0.53111,-3.03788 3.7777,0.72547 2.50685,2.90586 3.3658,4.78434 3.1901,6.97657 -0.22134,2.76153 -0.57317,3.02419 -4.42618,3.30436 -3.38347,0.24602 -4.39645,-0.0894 -5.28518,-1.75 z m 22.81593,0.13811 c -1.67749,-2.39078 -1.42715,-40.55318 0.26233,-39.99002 0.63872,0.21291 1.09221,7.27933 1.20771,18.81924 L 301.5,276.5 l 3.811,0.314 c 2.94321,0.2425 3.73829,0.69792 3.49168,2 -0.48792,2.57627 -7.21612,2.86054 -8.95766,0.37847 z M 327.2,279.8 c -0.87873,-0.87873 -1.2,-9.04444 -1.2,-30.5 0,-27.23786 0.12317,-29.30004 1.75,-29.30061 1.63229,-5.6e-4 1.73117,1.91638 1.47002,28.5 L 328.94005,277 H 331.47002 334 v -28.89301 c 0,-23.86487 0.24403,-28.98665 1.40223,-29.4311 0.77123,-0.29595 1.67123,-0.26909 2,0.0597 0.32878,0.32877 0.59777,14.00693 0.59777,30.39591 0,28.4371 -0.0883,29.84544 -1.93426,30.83334 -2.61187,1.39783 -7.39196,1.30896 -8.86574,-0.16482 z m 27.46667,0.53333 C 352.88615,278.55282 354.20605,277 357.5,277 h 3.5 v -28.57332 c 0,-26.67427 0.11631,-28.55095 1.75,-28.23668 1.61065,0.30984 1.77112,2.61794 2.01519,28.9867 0.23198,25.0616 0.0665,28.84878 -1.32143,30.23668 -1.57569,1.57569 -7.50037,2.19668 -8.77709,0.91995 z m 26.70175,-0.81561 c -0.81073,-2.11274 -0.56394,-2.27228 4.13158,-2.67099 3.44439,-0.29248 4,-0.0623 4,1.65681 0,1.58597 -0.77268,2.06037 -3.75804,2.3073 -2.72791,0.22564 -3.92675,-0.12882 -4.37354,-1.29312 z m -209.28364,-2.09761 -2.41522,-2.54533 3.62239,1.7274 c 1.99232,0.95007 3.39011,2.10324 3.1062,2.56261 -0.82622,1.33685 -1.74012,0.9672 -4.31337,-1.74468 z M 230,277.39095 c 0,-0.88487 4.36559,-5.3533 5.25,-5.37367 1.42127,-0.0327 0.74599,2.67637 -1.07874,4.32773 C 232.36488,277.97976 230,278.57275 230,277.39095 Z m -98,-3.16871 c 0,-0.42777 0.84547,-1.50167 1.87882,-2.38645 1.03335,-0.88478 2.09674,-2.22229 2.36309,-2.97224 0.26636,-0.74995 0.82004,-1.05189 1.23042,-0.67098 C 138.72614,269.35636 135.64505,275 133.75589,275 132.79015,275 132,274.65001 132,274.22224 Z M 191.01473,273.75 c 0.008,-0.1375 0.86444,-2.95 1.90298,-6.25 1.72529,-5.48216 1.94847,-5.76532 2.58593,-3.2809 0.50181,1.95576 0.0851,3.71035 -1.48455,6.25 -1.84265,2.98148 -3.06539,4.31676 -3.00436,3.2809 z M 224.5,273 c 0.33992,-0.55 1.04148,-1 1.55902,-1 0.51754,0 0.94098,0.45 0.94098,1 0,0.55 -0.70156,1 -1.55902,1 -0.85746,0 -1.2809,-0.45 -0.94098,-1 z m -45.46858,-0.75 c 0.0522,-1.24557 5.05448,-4.49763 5.78697,-3.76219 0.37489,0.37639 -0.38074,1.54561 -1.67917,2.59827 -2.44301,1.98058 -4.16243,2.46777 -4.1078,1.16392 z m -10.51398,-2.82142 c -2.14814,-1.99083 -2.50408,-2.83752 -1.57646,-3.75 0.92326,-0.90818 1.75575,-0.53487 3.62858,1.62718 4.24175,4.89679 2.68201,6.51026 -2.05212,2.12282 z M 96.252835,269.75 c -0.54563,-0.6875 -1.296121,-2.9375 -1.667758,-5 -0.941989,-5.22782 1.049247,-4.82599 2.477709,0.5 0.626932,2.3375 1.345834,4.5875 1.597562,5 0.775044,1.27005 -1.35358,0.82797 -2.407513,-0.5 z M 105.75,267.91264 c -0.9625,-1.6911 -1.75,-3.56325 -1.75,-4.16035 0,-1.50869 5.93793,4.45458 5.97222,5.99771 0.0521,2.34224 -2.46737,1.24588 -4.22222,-1.83736 z M 125,270 c 0,-0.55 0.70156,-1 1.55902,-1 0.85746,0 1.2809,0.45 0.94098,1 -0.33992,0.55 -1.04148,1 -1.55902,1 C 125.42344,271 125,270.55 125,270 Z m 102.66667,-0.66667 C 226.6293,268.29596 226.88283,265 228,265 c 0.55,0 1,1.125 1,2.5 0,2.61806 -0.23099,2.93567 -1.33333,1.83333 z m 7.99132,-0.009 C 234.63569,268.30236 234.88361,264 235.96482,264 c 1.83707,0 3.10289,3.69892 1.67216,4.88632 -0.72655,0.60298 -1.61709,0.80023 -1.97899,0.43834 z m 29.58345,-6.02558 C 262.90865,260.71357 261,257.79118 261,256.80488 c 0,-0.9863 2.025,-3.84735 4.5,-6.35789 2.475,-2.51054 4.5,-4.96497 4.5,-5.45428 0,-1.42799 4.95554,-6.37051 5.67047,-5.65558 0.35783,0.35784 -0.0966,1.4763 -1.00993,2.48548 -0.9133,1.00918 -1.66054,2.15658 -1.66054,2.54977 0,0.3932 -1.16,1.93277 -2.57777,3.42126 -1.41777,1.4885 -2.98164,3.71886 -3.47525,4.95636 -0.49361,1.2375 -1.54937,2.25 -2.34613,2.25 -0.98405,0 -0.1902,1.88456 2.47524,5.87609 2.15815,3.23186 3.92391,6.15686 3.92391,6.5 0,1.56622 -1.84633,0.25903 -5.75856,-4.07701 z M 185,263.05902 c 0,-1.96193 1.69082,-3.70153 2.65784,-2.73452 C 188.44309,261.10976 187.00762,265 185.93261,265 185.41968,265 185,264.12656 185,263.05902 Z m 32.75,-1.71966 c -1.5125,-0.79667 -2.75,-1.87394 -2.75,-2.39393 0,-1.16262 -0.3004,-1.19388 4.465,0.46462 4.17035,1.45141 5.99255,3.66464 2.86833,3.48387 -1.00833,-0.0583 -3.07083,-0.7579 -4.58333,-1.55456 z m 55.2623,-2.56063 c -1.48451,-3.31575 -1.6349,-4.53097 -0.70111,-5.66501 0.99566,-1.20918 1.24367,-1.05138 1.52647,0.97126 0.18572,1.32826 1.24536,3.39421 2.35477,4.59099 1.93462,2.08699 1.77924,4.32403 -0.30034,4.32403 -0.54443,0 -1.84034,-1.89957 -2.87979,-4.22127 z m -41.37744,1.14869 c -3.51074,-2.76154 -3.33888,-4.0688 0.36514,-2.77758 1.91538,0.66771 3,1.73353 3,2.94799 0,2.3741 -0.13928,2.36705 -3.36514,-0.17041 z M 129,260.05902 c 0,-0.51754 0.45,-1.2191 1,-1.55902 0.55,-0.33992 1,0.0835 1,0.94098 0,0.85746 -0.45,1.55902 -1,1.55902 -0.55,0 -1,-0.42344 -1,-0.94098 z m 57.24671,-3.03558 C 184.75565,254.63588 184.6162,252 185.98095,252 c 1.07931,0 2.42065,4.29521 1.8634,5.96696 -0.19301,0.57903 -0.91195,0.15444 -1.59764,-0.94352 z m 25.40828,-0.85218 C 209.8399,254.16561 209.54016,253 210.83948,253 c 0.46172,0 1.35207,1.125 1.97857,2.5 1.35478,2.97342 1.06941,3.13811 -1.16306,0.67126 z m 12.37397,-0.1322 c -0.80907,-0.51167 -1.16598,-1.23537 -0.79313,-1.60823 0.9151,-0.91509 3.76417,0.24885 3.76417,1.53779 0,1.2701 -1.03529,1.29465 -2.97104,0.0704 z M 194,254.08179 c 0,-1.05502 -0.27314,-2.63002 -0.60699,-3.5 C 192.9977,249.55161 193.33581,249 194.36256,249 c 1.16015,0 1.54179,0.9244 1.44496,3.5 C 195.67279,256.08367 194,257.54756 194,254.08179 Z m 23.97994,-1.60596 c -0.69572,-0.83829 -0.98669,-1.80241 -0.64661,-2.1425 0.72629,-0.72629 3.66667,1.51036 3.66667,2.78911 0,1.37745 -1.62985,1.02849 -3.02006,-0.64661 z M 390,251.23978 c 0,-0.41812 1.17775,-2.03037 2.61722,-3.58277 1.77243,-1.91149 2.9452,-2.49459 3.63331,-1.80648 0.6881,0.6881 0.0854,1.83436 -1.86723,3.55117 -2.94492,2.58927 -4.3833,3.19244 -4.3833,1.83808 z m -207.35983,-3.0849 c -1.34509,-1.4863 -2.67577,-1.76179 -6.66054,-1.3789 -5.83489,0.56066 -6.73141,-1.04274 -1.54086,-2.75577 2.80865,-0.92694 4.00913,-0.83995 6.55145,0.47473 2.93539,1.51795 4.81977,4.0284 3.79385,5.05432 -0.25465,0.25465 -1.21941,-0.37282 -2.1439,-1.39438 z M 276,249.19113 c 0,-0.44488 0.64471,-1.68238 1.43268,-2.75 1.18519,-1.60581 1.66024,-1.71357 2.75,-0.62381 1.08976,1.08976 0.982,1.56481 -0.62381,2.75 C 277.39191,250.16668 276,250.41066 276,249.19113 Z m -16.3521,-7.28572 C 259.29156,238.49607 259,231.94763 259,227.35331 259,219.49067 259.12541,219 261.13494,219 c 2.11104,0 2.12695,0.15399 1.42088,13.75 -0.39274,7.5625 -1.06191,14.11094 -1.48704,14.5521 -0.42514,0.44115 -1.06453,-1.98736 -1.42088,-5.39669 z m -42.25489,3.5128 c 0.33385,-0.86998 0.60699,-1.76998 0.60699,-2 0,-0.23001 0.9,-0.41821 2,-0.41821 2.26671,0 2.56299,1.03701 0.8,2.8 -1.77362,1.77362 -4.13265,1.50927 -3.40699,-0.38179 z m 184.36334,-1.92396 c 0.26345,-1.37816 -0.02,-3.10706 -0.63,-3.84201 C 400.02308,238.32289 400.55432,237 402.19142,237 c 1.3275,0 2.92997,5.04219 2.26666,7.13208 -0.91716,2.8897 -3.26988,2.33427 -2.70173,-0.63783 z M 210,243.7 c 0,-1.68167 2.03091,-3.7 3.72305,-3.7 1.0134,0 0.93968,0.58511 -0.31501,2.5 C 211.63482,245.20629 210,245.78192 210,243.7 Z m 18,-0.2 c 0,-1.84109 0.77935,-1.84109 4,0 l 2.5,1.42913 -3.25,0.0354 C 229.01203,244.98897 228,244.53291 228,243.5 Z m -59,-1.03138 C 169,241.66088 169.675,241 170.5,241 c 0.825,0 1.5,0.40186 1.5,0.89301 0,0.49116 -0.675,1.15203 -1.5,1.46862 -0.91371,0.35062 -1.5,0.002 -1.5,-0.89301 z m 19.65499,-0.29736 c -2.25354,-2.49013 -2.07839,-3.37049 0.59501,-2.99081 1.44596,0.20536 2.36419,1.12359 2.56955,2.56955 0.38675,2.72313 -0.92355,2.89756 -3.16456,0.42126 z m 197.99439,-0.40401 c -0.71073,-2.71784 1.02894,-4.90578 2.28487,-2.87363 0.68191,1.10335 1.49797,1.15136 4.10759,0.24164 3.41108,-1.18911 7.90827,-1.54653 4.97554,-0.39544 -0.81545,0.32006 -2.31061,1.63454 -3.32258,2.92105 -2.47625,3.14804 -7.23355,3.21094 -8.04542,0.10638 z M 282,241.55902 c 0,-1.79236 1.6522,-2.89201 3.04856,-2.02901 0.7168,0.44301 0.67806,1.09446 -0.12245,2.05902 C 283.41516,243.40961 282,243.3951 282,241.55902 Z M 231.5,240 c -0.33992,-0.55 -1.49148,-1 -2.55902,-1 C 227.87344,239 227,238.55 227,238 c 0,-0.55 0.5625,-0.98999 1.25,-0.97776 1.63254,0.029 6.61721,3.92643 5.05902,3.95552 C 232.65398,240.98999 231.83992,240.55 231.5,240 Z M 308,239.55902 C 308,238.70156 308.45,238 309,238 c 0.55,0 1,0.42344 1,0.94098 0,0.51754 -0.45,1.2191 -1,1.55902 -0.55,0.33992 -1,-0.0835 -1,-0.94098 z m -132.37505,-0.2674 c -0.31382,-0.31382 -0.33125,-0.95781 -0.0388,-1.4311 0.70205,-1.13593 3.4138,-1.11012 3.4138,0.0325 0,1.10376 -2.59467,2.17899 -3.37505,1.39861 z m 41.55362,-0.59757 C 219.01596,236.83972 222,236.41016 222,238 c 0,0.55 -0.6382,1 -1.41821,1 -0.78002,0 -2.24252,0.31232 -3.25,0.69405 -1.71576,0.65008 -1.72546,0.58673 -0.15322,-1 z M 223.5,238 c 0.33992,-0.55 0.81648,-1 1.05902,-1 0.24254,0 0.44098,0.45 0.44098,1 0,0.55 -0.47656,1 -1.05902,1 -0.58246,0 -0.7809,-0.45 -0.44098,-1 z m 75.84508,-8.54313 c -0.32569,-0.84872 -0.35011,-1.78518 -0.0543,-2.08102 0.87932,-0.87932 4.81683,1.64095 4.17817,2.67432 -0.91635,1.48269 -3.46816,1.11556 -4.12391,-0.5933 z M 306.8,228.8 c 0.66,-0.66 1.2,-2.235 1.2,-3.5 0,-1.97209 -0.51087,-2.3 -3.58333,-2.3 -3.74,0 -4.24131,-1.44647 -1.17225,-3.38238 2.10297,-1.32652 6.61673,0.98353 8.04442,4.11696 0.80915,1.7759 0.64171,2.68468 -0.78516,4.26136 -0.99751,1.10223 -2.50891,2.00406 -3.35867,2.00406 -1.20167,0 -1.27834,-0.26667 -0.34501,-1.2 z M 130.63948,225.30615 C 129.5133,224.17996 129.95359,223 131.5,223 c 0.825,0 1.5,0.42344 1.5,0.94098 0,1.26098 -1.56159,2.1641 -2.36052,1.36517 z M 137,224 c 0,-0.55 0.675,-1 1.5,-1 0.825,0 1.5,0.45 1.5,1 0,0.55 -0.675,1 -1.5,1 -0.825,0 -1.5,-0.45 -1.5,-1 z m 216.54271,-2.9309 c -0.68308,-1.10523 0.8944,-2.29865 1.81781,-1.37525 0.95079,0.95079 0.77359,2.30615 -0.3015,2.30615 -0.51754,0 -1.19988,-0.41891 -1.51631,-0.9309 z M 89,210.46778 c 0,-2.38847 4.23107,-3.62823 5.75,-1.68484 C 96.728769,211.31468 96.249461,212 92.5,212 90.022841,212 89,211.55222 89,210.46778 Z m 15,-1.31279 c 0,-2.79105 -2.02735,-5.38932 -5,-6.40808 -1.256195,-0.43051 -1.218743,-0.63042 0.230421,-1.22996 1.231559,-0.50952 3.164529,0.538 6.704969,3.63357 C 111.905,210.37002 112.27733,212 107.5,212 c -3.17985,0 -3.5,-0.26024 -3.5,-2.84501 z"
         id="path377" />
      <path
         style="fill:#fcfcfc"
         d="M 159.22251,295.4433 C 157.01764,293.89895 157,293.6688 157,266.4433 157,242.71592 157.20311,239 158.5,239 c 1.29621,0 1.5,3.65996 1.5,26.93963 v 26.93964 l 3.68931,0.31036 c 3.51808,0.29596 3.60759,0.3916 1.92858,2.06037 -2.16932,2.15608 -3.53422,2.19733 -6.39538,0.1933 z M 113.5,280 c -0.37381,-0.60483 1.00929,-1 3.5,-1 2.49071,0 3.87381,0.39517 3.5,1 -0.33992,0.55 -1.91492,1 -3.5,1 -1.58508,0 -3.16008,-0.45 -3.5,-1 z m 65.5,0.23321 c 0,-0.55003 1.0125,-1.24119 2.25,-1.5359 1.2375,-0.29471 3.2625,-0.84966 4.5,-1.23321 1.2983,-0.40239 2.25,-0.27436 2.25,0.30269 0,0.55003 -1.0125,1.24119 -2.25,1.5359 -1.2375,0.29471 -3.2625,0.84966 -4.5,1.23321 -1.2983,0.40239 -2.25,0.27436 -2.25,-0.30269 z m 37.57983,-0.10405 c -0.29602,-0.47896 -1.88558,-1.14031 -3.53236,-1.46967 -2.14548,-0.42909 -3.17935,-1.33677 -3.64759,-3.20237 -0.79572,-3.17041 0.41895,-4.50802 3.10012,-3.41387 1.70083,0.69409 1.73823,0.82669 0.25,0.88646 -2.0967,0.0842 -2.30081,2.36827 -0.35588,3.98242 0.76677,0.63636 3.68042,1.4278 6.47478,1.75875 2.79436,0.33095 4.84045,0.99039 4.54686,1.46542 -0.6961,1.12631 -6.13894,1.12062 -6.83593,-0.007 z m 35.96964,0.087 C 250.87816,278.54483 252.29542,277 255.5,277 c 3.39785,0 3.5,-0.1131 3.5,-3.875 0,-5.01407 1.03249,-10.125 2.04541,-10.125 1.3637,0 2.30505,12.93542 1.12915,15.51623 -0.87669,1.92413 -1.81369,2.34959 -5.07541,2.30457 -2.20012,-0.0304 -4.24748,-0.30246 -4.54968,-0.60467 z m 24.98083,-0.0192 C 275.85824,278.52491 277.31553,277 280.58549,277 h 3.5855 l -2.60009,-4.65207 c -3.21502,-5.7523 -2.51566,-6.86648 1.43448,-2.28533 3.17824,3.68595 4.53076,7.09785 3.68618,9.2988 -0.50724,1.32186 -7.99228,2.00454 -9.16126,0.83557 z m 22.64347,-0.4232 c -1.48384,-1.48384 -1.66819,-39.35017 -0.196,-40.26003 0.62024,-0.38333 1.07731,6.26835 1.25,18.19098 L 301.5,276.5 l 3.75,0.31037 c 2.45306,0.20302 3.75,0.80826 3.75,1.75 0,0.79179 -0.3375,1.48993 -0.75,1.55141 -4.93553,0.73562 -7.0929,0.64532 -8.07623,-0.33801 z m 26.79226,-0.83724 c -1.55237,-2.90064 -0.81426,-58.15472 0.78397,-58.68694 0.98055,-0.32653 1.25,5.74507 1.25,28.16708 V 277 h 2.5 2.5 v -29 c 0,-28.33333 0.046,-29 2,-29 1.95469,0 2,0.66667 2,29.42857 0,32.66231 0.0583,32.37143 -6.48976,32.37143 -2.43683,0 -3.85903,-0.58321 -4.54421,-1.86347 z m 27.60064,1.2968 c -1.62375,-1.62375 -0.21182,-3.14197 3.18333,-3.42296 l 3.75,-0.31037 v -28.27586 c 0,-24.59596 0.19521,-28.23824 1.5,-27.98669 1.28378,0.24749 1.53832,4.38148 1.76583,28.67962 0.29637,31.65156 0.25092,31.88293 -6.26365,31.88293 -1.85287,0 -3.62385,-0.255 -3.93551,-0.56667 z m 27.68333,0.1044 C 381.5625,280.06031 381,279.19583 381,278.41667 381,277.44082 382.19281,277 384.83333,277 c 4.43757,0 5.60392,0.76821 4.03555,2.65799 -1.10437,1.33068 -4.21418,1.65005 -6.61888,0.67973 z M 232.15812,275 C 234.52841,271.79402 236,271.16009 236,273.34501 236,274.95912 232.82605,278 231.14132,278 c -0.70897,0 -0.29231,-1.22933 1.0168,-3 z M 132,274.64602 C 132,273.92541 136.93085,269 137.65225,269 c 0.41126,0 0.20775,0.54 -0.45225,1.2 -0.66,0.66 -1.2,2.01 -1.2,3 0,1.13333 -0.74074,1.8 -2,1.8 -1.1,0 -2,-0.15929 -2,-0.35398 z m 48.75,-3.84046 c 1.20694,-1.20695 2.51159,-1.8773 2.89922,-1.48967 0.38763,0.38763 -0.16237,1.36081 -1.22222,2.16264 -2.9741,2.25004 -4.13439,1.78442 -1.677,-0.67297 z m -11.5,-0.74912 C 167.00131,268.18051 166.17223,265 167.93191,265 c 0.91797,0 5.06809,5.24435 5.06809,6.40437 0,1.08315 -1.46865,0.55525 -3.75,-1.34793 z m -73.307457,-1.1638 c -0.727352,-1.35907 -0.783959,-2.45122 -0.15942,-3.07576 0.624539,-0.62454 1.349132,0.12375 2.040621,2.10736 1.217924,3.49374 -0.152208,4.19905 -1.881201,0.9684 z m 9.742667,-1.42657 c -2.39395,-5.02016 -2.10773,-5.37439 1.31479,-1.62721 3.23774,3.54487 3.76549,5.16114 1.68521,5.16114 -0.72313,0 -2.07313,-1.59027 -3,-3.53393 z m 87.78767,-0.21402 c 0.79488,-3.16706 1.27811,-3.8344 2.14722,-2.96529 0.9472,0.94721 -0.51063,5.71324 -1.74756,5.71324 -0.68885,0 -0.83579,-1.0103 -0.39966,-2.74795 z m 42.25491,0.81503 c -0.29701,-1.1358 -0.1291,-2.31906 0.37315,-2.62947 1.31247,-0.81114 2.35801,2.50344 1.16576,3.69569 -0.66516,0.66516 -1.17929,0.30895 -1.53891,-1.06622 z M 227,266.94098 c 0,-1.13246 0.45,-1.7809 1,-1.44098 0.55,0.33992 1,1.26648 1,2.05902 0,0.79254 -0.45,1.44098 -1,1.44098 -0.55,0 -1,-0.92656 -1,-2.05902 z m 40.76215,-0.71456 c -0.82784,-0.94953 -2.02881,-2.73892 -2.66883,-3.97642 -0.64003,-1.2375 -1.82285,-2.25 -2.6285,-2.25 C 261.65917,260 261,259.30265 261,258.45034 261,255.86539 263.95547,251 265.52568,251 c 2.23602,0 1.76294,3.11176 -0.56566,3.72071 -1.78851,0.4677 -1.86583,0.73351 -0.62728,2.15638 2.94314,3.38111 6.5973,10.04811 5.78313,10.5513 -0.46672,0.28845 -1.52589,-0.25244 -2.35372,-1.20197 z M 94.582949,263.13421 c -0.430771,-0.697 -0.513159,-1.53733 -0.183085,-1.86741 0.894961,-0.89496 1.870768,0.4213 1.387387,1.87145 -0.338725,1.01617 -0.574267,1.01538 -1.204302,-0.004 z m 90.571551,-0.68618 c 0.19002,-0.98026 0.95098,-1.98391 1.691,-2.23033 0.86063,-0.28658 1.221,0.19425 1,1.33427 -0.19002,0.98026 -0.95098,1.98391 -1.691,2.23033 -0.86063,0.28658 -1.221,-0.19425 -1,-1.33427 z M 220,262.11663 c 0,-0.48585 -0.99285,-1.143 -2.20633,-1.46034 -1.21348,-0.31733 -1.91863,-0.86466 -1.567,-1.21629 0.86559,-0.8656 7.77333,1.47826 7.77333,2.63755 0,0.50735 -0.9,0.92245 -2,0.92245 -1.1,0 -2,-0.39752 -2,-0.88337 z m 53.52568,-2.06697 C 271.77415,256.66257 271.54684,253.3981 273,252.5 c 0.56216,-0.34743 1,0.4488 1,1.81854 0,1.34011 0.675,2.99677 1.5,3.68146 1.66814,1.38443 2.04827,5 0.52568,5 -0.53588,0 -1.66088,-1.32765 -2.5,-2.95034 z M 129,260.05902 c 0,-0.51754 0.45,-1.2191 1,-1.55902 0.55,-0.33992 1,0.0835 1,0.94098 0,0.85746 -0.45,1.55902 -1,1.55902 -0.55,0 -1,-0.42344 -1,-0.94098 z M 230.73203,259 c -0.94185,-1.1 -1.23728,-2 -0.6565,-2 1.70176,0 4.92447,1.98631 4.92447,3.03518 0,1.65718 -2.47714,1.05636 -4.26797,-1.03518 z m -19.07704,-2.82874 c -1.82298,-2.01437 -2.2247,-3.64139 -0.66037,-2.67458 1.04315,0.6447 3.3528,4.50332 2.69555,4.50332 -0.20911,0 -1.12494,-0.82293 -2.03518,-1.82874 z M 185.38,255.54789 c -0.8161,-2.12673 0.63103,-4.13856 1.72969,-2.40465 1.17921,1.86103 1.10621,3.85676 -0.14107,3.85676 -0.56727,0 -1.28214,-0.65345 -1.58862,-1.45211 z M 224,254.94098 c 0,-0.58246 0.45,-0.7809 1,-0.44098 0.55,0.33992 1,0.81648 1,1.05902 0,0.24254 -0.45,0.44098 -1,0.44098 -0.55,0 -1,-0.47656 -1,-1.05902 z m -5.54112,-2.00751 c -0.36253,-0.58659 -0.41903,-1.30665 -0.12555,-1.60014 0.71632,-0.71631 2.66667,0.54583 2.66667,1.72569 0,1.27797 -1.72641,1.19267 -2.54112,-0.12555 z M 194,251 c 0,-1.1 0.45,-2 1,-2 0.55,0 1,0.9 1,2 0,1.1 -0.45,2 -1,2 -0.55,0 -1,-0.9 -1,-2 z m 198.46593,-2.96444 c 1.56207,-1.63045 3.26882,-2.69949 3.79278,-2.37567 1.11438,0.68873 -3.59106,5.34011 -5.40216,5.34011 -0.6769,0 0.0473,-1.334 1.60938,-2.96444 z M 268,249.10978 c 0,-1.97926 5.3276,-9.06432 6.83403,-9.08843 0.80096,-0.0128 0.0306,1.67694 -1.92794,4.22865 C 268.23938,250.33024 268,250.56736 268,249.10978 Z m -85.90764,-1.49849 c -0.80237,-0.9668 -2.66243,-1.25642 -6.12244,-0.95328 -5.79256,0.50749 -6.597,-0.96592 -1.45406,-2.66325 2.98779,-0.98605 3.98957,-0.88367 6.66972,0.68162 3.12522,1.82522 4.87043,4.32362 3.0202,4.32362 -0.52849,0 -1.47953,-0.62492 -2.11342,-1.38871 z m 94.51634,-0.034 C 277.51639,245.21191 280,244.8121 280,247.03138 280,248.32287 279.32287,249 278.03138,249 c -1.29148,0 -1.78083,-0.48935 -1.42268,-1.42268 z M 217,246.2 c 0,-1.25924 2.26535,-3.2 3.73518,-3.2 1.02531,0 1.08677,0.46417 0.26482,2 -1.03564,1.93512 -4,2.82443 -4,1.2 z m 184.92496,-2.50263 c 0.51989,-1.36741 0.48966,-2.99201 -0.0744,-4 C 401.21743,238.5661 401.25786,238 401.97175,238 c 0.58912,0 1.57764,1.11167 2.19671,2.47039 0.86067,1.88895 0.8268,2.83039 -0.14388,4 -1.89736,2.28617 -3.09507,1.84521 -2.09962,-0.77302 z M 210,243.53518 c 0,-0.80565 0.87042,-1.93065 1.93426,-2.5 2.94914,-1.57833 3.2632,-1.26617 1.47378,1.46482 C 211.58215,245.28667 210,245.76724 210,243.53518 Z m 18.54271,0.53392 c -1.01806,-1.64724 0.90898,-1.93426 3.46984,-0.5168 l 2.48745,1.37683 -2.69098,0.0354 c -1.48004,0.0195 -2.94988,-0.38347 -3.26631,-0.89546 z M 169,242.5 c 0,-0.825 0.7301,-1.5 1.62244,-1.5 1.3288,0 1.39713,0.27149 0.37756,1.5 -0.68469,0.825 -1.41479,1.5 -1.62244,1.5 C 169.1699,244 169,243.325 169,242.5 Z m 20,-0.30928 c -2.28929,-1.87002 -2.34684,-2.10173 -0.68278,-2.74921 2.19893,-0.8556 3.9974,0.70936 3.52656,3.0687 -0.31363,1.57156 -0.56304,1.54354 -2.84378,-0.31949 z M 259.64798,238.75 c -1.55048,-12.90846 -0.41138,-21.9134 2.41452,-19.0875 1.02333,1.02333 -0.008,24.3375 -1.07618,24.3375 -0.38926,0 -0.99151,-2.3625 -1.33834,-5.25 z m 127.01689,3.07646 c -0.80335,-3.07201 0.3818,-4.48312 1.95652,-2.32957 0.93755,1.28219 1.68462,1.50923 2.59735,0.78938 0.70469,-0.55577 2.47634,-1.29547 3.93699,-1.64377 l 2.65572,-0.63328 -2.62841,2.99539 c -3.2374,3.68941 -7.65678,4.1158 -8.51817,0.82185 z M 282.01531,242.25 c 0.008,-0.4125 0.43396,-1.41197 0.94563,-2.22104 1.15213,-1.82179 2.5038,-0.68243 1.69398,1.42791 -0.59808,1.55857 -2.66793,2.18051 -2.63961,0.79313 z m -50.47419,-2.18347 C 231.17858,239.47994 230.00852,239 228.94098,239 227.87344,239 227,238.55 227,238 c 0,-0.55 0.5625,-0.98569 1.25,-0.9682 1.69691,0.0432 5.24565,2.80589 4.52713,3.5244 -0.31727,0.31727 -0.87348,0.0969 -1.23601,-0.48967 z M 308,239.55902 C 308,238.70156 308.45,238 309,238 c 0.55,0 1,0.42344 1,0.94098 0,0.51754 -0.45,1.2191 -1,1.55902 -0.55,0.33992 -1,-0.0835 -1,-0.94098 z M 176,238 c 0,-0.55 0.675,-1 1.5,-1 0.825,0 1.5,0.45 1.5,1 0,0.55 -0.675,1 -1.5,1 -0.825,0 -1.5,-0.45 -1.5,-1 z m 42.5,0 c 0.33992,-0.55 1.04148,-1 1.55902,-1 0.51754,0 0.94098,0.45 0.94098,1 0,0.55 -0.70156,1 -1.55902,1 -0.85746,0 -1.2809,-0.45 -0.94098,-1 z m 80.84508,-8.54313 c -0.32569,-0.84872 -0.32244,-1.81284 0.007,-2.1425 0.71222,-0.71223 3.6477,1.54756 3.6477,2.80807 0,1.50909 -3.03233,0.9569 -3.65492,-0.66557 z M 307.69371,226.5 c 0.54585,-3.36367 0.44833,-3.5 -2.50385,-3.5 -3.62314,0 -4.7629,-1.27953 -2.67975,-3.00839 2.02728,-1.68249 6.77485,0.30381 8.51998,3.56462 1.1191,2.09106 1.04744,2.70062 -0.5213,4.43405 -2.63822,2.91521 -3.45944,2.48047 -2.81508,-1.49028 z M 130,224 c 0,-0.55 0.42344,-1 0.94098,-1 0.51754,0 1.2191,0.45 1.55902,1 0.33992,0.55 -0.0835,1 -0.94098,1 C 130.70156,225 130,224.55 130,224 Z m 7.5,0 c 0.33992,-0.55 0.81648,-1 1.05902,-1 0.24254,0 0.44098,0.45 0.44098,1 0,0.55 -0.47656,1 -1.05902,1 -0.58246,0 -0.7809,-0.45 -0.44098,-1 z M 354,221 c 0,-0.55 0.47656,-1 1.05902,-1 0.58246,0 0.7809,0.45 0.44098,1 -0.33992,0.55 -0.81648,1 -1.05902,1 C 354.19844,222 354,221.55 354,221 Z M 89,210.46778 c 0,-1.47547 3.837225,-3.61948 5.129293,-2.86595 0.346112,0.20185 0.866483,1.27402 1.156381,2.38259 C 95.737938,211.71388 95.32921,212 92.40638,212 90.013314,212 89,211.5442 89,210.46778 Z m 15.1717,-0.87024 C 104.52283,206.91799 101.5377,203 99.145012,203 c -1.200281,0 -1.277696,-0.26732 -0.346959,-1.19805 0.930738,-0.93074 1.923647,-0.51127 4.449997,1.88 1.78857,1.69294 4.26445,3.59789 5.50195,4.23324 3.57079,1.83329 2.84235,4.08481 -1.32157,4.08481 -3.19169,0 -3.53808,-0.25552 -3.25673,-2.40246 z"
         id="path375" />
      <path
         style="fill:#fbfbfc"
         d="M 158.65499,294.17126 C 157.20375,292.56766 157,289.12057 157,266.17126 157,249.68013 157.36383,240 157.98367,240 c 0.61373,0 1.08382,10.05995 1.25,26.75 l 0.26633,26.75 2.75,0.31642 c 1.5125,0.17403 2.75,0.73653 2.75,1.25 0,1.64915 -4.63412,0.99536 -6.34501,-0.89516 z M 253,279.12086 c 0,-0.54678 1.4625,-1.13515 3.25,-1.3075 3.08399,-0.29735 3.26599,-0.54322 3.56313,-4.81336 0.51694,-7.42888 2.33575,-7.42888 1.98967,0 l -0.3028,6.5 -4.25,0.3075 c -2.35617,0.17047 -4.25,-0.1355 -4.25,-0.68664 z m 25,-0.0575 c 0,-0.51515 1.4625,-1.07765 3.25,-1.25 3.29411,-0.31761 3.49982,-0.73285 2.13686,-4.31336 -0.67664,-1.77755 -0.57366,-1.84735 0.92591,-0.62756 0.92798,0.75485 1.68723,2.66735 1.68723,4.25 0,2.69049 -0.26005,2.87756 -4,2.87756 -2.2,0 -4,-0.42149 -4,-0.93664 z m 21.87244,-0.73677 c -1.23227,-1.50251 -1.11711,-1.60604 1.12756,-1.01366 1.375,0.36287 3.5125,0.66591 4.75,0.67342 1.2375,0.008 2.25,0.46365 2.25,1.01365 0,1.68307 -6.64655,1.13237 -8.12756,-0.67341 z m 27.79423,1.00674 c -0.36667,-0.36666 -0.56474,-13.75416 -0.44015,-29.75 L 327.45304,220.5 327.97652,249 328.5,277.5 h 3 3 l 0.26523,-29.32826 c 0.18363,-20.30529 0.5949,-29.21836 1.3368,-28.97106 1.09247,0.36415 1.37956,58.21107 0.29758,59.96175 -0.61346,0.99261 -7.77116,1.13268 -8.73294,0.1709 z M 355,279.12086 c 0,-0.54678 1.4625,-1.13515 3.25,-1.3075 l 3.25,-0.31336 0.26557,-28.25 c 0.16904,-17.9807 0.62892,-28.25 1.26511,-28.25 0.6493,0 0.90664,10.24899 0.73442,29.25 l -0.2651,29.25 -4.25,0.3075 C 356.89383,279.97797 355,279.672 355,279.12086 Z M 382,279 c 0,-0.55 1.575,-1 3.5,-1 1.925,0 3.5,0.45 3.5,1 0,0.55 -1.575,1 -3.5,1 -1.925,0 -3.5,-0.45 -3.5,-1 z M 169,268.5 c -0.70675,-0.85158 -1.06,-1.77333 -0.785,-2.04833 0.275,-0.275 1.07825,0.19675 1.785,1.04833 0.70675,0.85158 1.06,1.77333 0.785,2.04833 -0.275,0.275 -1.07825,-0.19675 -1.785,-1.04833 z m 105.60631,-8.08356 c -0.37373,-0.97391 -0.15024,-1.43108 0.58051,-1.1875 1.49484,0.49828 2.31789,2.77106 1.0035,2.77106 -0.53699,0 -1.24979,-0.7126 -1.58401,-1.58356 z M 278,247.55902 C 278,246.70156 278.45,246 279,246 c 0.55,0 1,0.42344 1,0.94098 0,0.51754 -0.45,1.2191 -1,1.55902 -0.55,0.33992 -1,-0.0835 -1,-0.94098 z M 175.5,245 c 0.33992,-0.55 1.26648,-1 2.05902,-1 0.79254,0 1.44098,0.45 1.44098,1 0,0.55 -0.92656,1 -2.05902,1 -1.13246,0 -1.7809,-0.45 -1.44098,-1 z m 43,0 c 0.33992,-0.55 0.81648,-1 1.05902,-1 0.24254,0 0.44098,0.45 0.44098,1 0,0.55 -0.47656,1 -1.05902,1 -0.58246,0 -0.7809,-0.45 -0.44098,-1 z M 391,241.69032 c 0,-0.81199 0.70769,-1.74791 1.57265,-2.07982 1.09668,-0.42084 1.475,-0.1 1.25,1.06014 C 393.41213,242.78733 391,243.65871 391,241.69032 Z m -202,-1.31276 c 0,-1.3288 0.27149,-1.39713 1.5,-0.37756 0.825,0.68469 1.5,1.41479 1.5,1.62244 0,0.20766 -0.675,0.37756 -1.5,0.37756 -0.825,0 -1.5,-0.7301 -1.5,-1.62244 z m 71.66667,-7.04423 C 259.59046,232.25713 259.89689,220 261,220 c 0.57143,0 1,3 1,7 0,7.03861 -0.10923,7.55744 -1.33333,6.33333 z M 309,225.37756 c 0,-2.22719 0.22794,-2.43327 1.51233,-1.36733 1.15031,0.95467 1.24069,1.58244 0.37756,2.62245 C 309.29268,228.55719 309,228.36281 309,225.37756 Z M 303,221 c 0,-0.55 0.9,-1 2,-1 1.1,0 2,0.45 2,1 0,0.55 -0.9,1 -2,1 -1.1,0 -2,-0.45 -2,-1 z M 89.675343,211.34201 C 88.803267,210.46993 90.902272,208 92.515456,208 c 1.413627,0 2.682639,2.46857 1.748976,3.40223 -0.800401,0.80041 -3.7674,0.76147 -4.589089,-0.0602 z m 15.991327,-0.009 C 104.32613,209.9928 105.05005,208 106.87756,208 c 2.0866,0 4.47425,2.31486 3.4471,3.34201 -0.85371,0.85371 -3.8011,0.84822 -4.65799,-0.009 z"
         id="path373" />
      <path
         style="fill:#fafafa"
         d="m 259,279.24489 c 0,-0.55 0.675,-1.5602 1.5,-2.24489 0.83674,-0.69443 1.5,-0.80272 1.5,-0.24489 0,0.55 -0.675,1.5602 -1.5,2.24489 -0.83674,0.69443 -1.5,0.80272 -1.5,0.24489 z M 284,279 c 0,-0.55 0.47656,-1 1.05902,-1 0.58246,0 0.7809,0.45 0.44098,1 -0.33992,0.55 -0.81648,1 -1.05902,1 C 284.19844,280 284,279.55 284,279 Z m 50.56277,-0.5 c 0.51548,-1.1 0.93723,-14.71263 0.93723,-30.25028 0,-15.53765 0.3375,-28.25015 0.75,-28.25 0.4125,1.5e-4 0.75,12.99518 0.75,28.87784 0,25.88421 -0.17489,29.01981 -1.68723,30.25 -1.5076,1.22632 -1.58745,1.15951 -0.75,-0.62756 z M 361.5,278 c 0.33992,-0.55 0.81648,-1 1.05902,-1 0.24254,0 0.44098,0.45 0.44098,1 0,0.55 -0.47656,1 -1.05902,1 -0.58246,0 -0.7809,-0.45 -0.44098,-1 z m -52,-52 c -0.33992,-0.55 -0.14148,-1 0.44098,-1 0.58246,0 1.05902,0.45 1.05902,1 0,0.55 -0.19844,1 -0.44098,1 -0.24254,0 -0.7191,-0.45 -1.05902,-1 z M 90,210 c 0,-0.55 0.9,-1 2,-1 1.1,0 2,0.45 2,1 0,0.55 -0.9,1 -2,1 -1.1,0 -2,-0.45 -2,-1 z m 16,0.16667 c 0,-1.409 1.12639,-2.0554 2.59777,-1.49078 C 110.68471,209.47673 110.29292,211 108,211 c -1.1,0 -2,-0.375 -2,-0.83333 z"
         id="path371" />
    </g>
  </g>
</svg>
