<?xml version="1.0" standalone="no"?>
<!DOCTYPE svg PUBLIC "-//W3C//DTD SVG 20010904//EN"
 "http://www.w3.org/TR/2001/REC-SVG-20010904/DTD/svg10.dtd">
<svg version="1.0" xmlns="http://www.w3.org/2000/svg"
 width="500.000000pt" height="500.000000pt" viewBox="0 0 500.000000 500.000000"
 preserveAspectRatio="xMidYMid meet">

<g transform="translate(0.000000,500.000000) scale(0.100000,-0.100000)"
fill="#004AAD" stroke="none">
<path d="M0 2500 l0 -2500 2500 0 2500 0 0 2500 0 2500 -2500 0 -2500 0 0
-2500z m1095 460 l59 -60 -32 0 -32 0 0 -256 c0 -278 4 -299 57 -323 31 -14
85 -14 116 0 47 22 52 41 57 259 l5 205 55 0 55 0 3 -189 c3 -228 -6 -274 -67
-329 -22 -20 -57 -40 -78 -46 -49 -14 -137 -14 -188 0 -51 14 -110 73 -124
124 -7 24 -11 140 -11 298 l0 257 -32 0 -32 0 59 60 c33 33 62 60 65 60 3 0
32 -27 65 -60z m1555 -305 l5 -169 54 73 c30 40 66 77 80 83 35 13 91 2 91
-18 0 -9 -27 -47 -60 -86 -69 -79 -71 -60 20 -200 33 -51 60 -98 60 -105 0 -9
-18 -13 -59 -13 l-59 0 -63 102 -64 101 -5 -99 -5 -99 -55 0 -55 0 -3 290 c-1
159 0 296 3 303 3 9 21 12 57 10 l53 -3 5 -170z m738 -132 l2 -303 -55 0 -55
0 0 306 0 305 53 -3 52 -3 3 -302z m267 2 l0 -300 -55 0 -55 0 -3 290 c-1 159
0 296 3 303 3 9 21 12 57 10 l53 -3 0 -300z m-544 285 c14 -8 19 -21 19 -50 0
-44 -18 -60 -69 -60 -37 0 -61 23 -61 60 0 48 62 76 111 50z m-1437 -166 c9
-3 16 -17 16 -30 0 -28 12 -31 31 -8 36 43 132 58 189 29 88 -46 114 -250 45
-356 -45 -69 -141 -90 -208 -45 l-36 25 -3 -97 -3 -97 -50 0 -50 0 -3 287 c-2
267 -1 287 15 291 28 7 40 7 57 1z m675 -5 c27 -10 31 -15 31 -48 0 -48 -6
-53 -41 -36 -62 32 -149 9 -122 -33 10 -17 22 -24 106 -63 70 -33 95 -83 76
-152 -14 -52 -64 -87 -132 -94 -101 -10 -167 17 -167 70 0 44 13 49 61 28 56
-26 94 -26 119 -1 29 29 16 47 -67 88 -82 40 -103 66 -103 129 0 74 60 123
151 123 31 0 70 -5 88 -11z m749 5 c22 -6 22 -7 22 -215 l0 -209 -55 0 -55 0
0 209 c0 191 2 210 18 214 26 7 45 7 70 1z m793 -4 c10 -6 19 -20 19 -31 0
-18 3 -17 31 11 27 26 38 31 73 28 l41 -3 3 -54 3 -53 -36 6 c-32 6 -40 3 -70
-27 l-35 -35 0 -131 0 -131 -55 0 -55 0 0 209 c0 191 2 210 18 214 30 8 43 7
63 -3z"/>
<path d="M1780 2553 c-8 -3 -27 -17 -42 -31 -25 -23 -28 -33 -28 -93 0 -63 2
-69 31 -93 41 -35 70 -37 102 -9 39 36 45 160 8 202 -18 22 -49 32 -71 24z"/>
</g>
</svg>
