<?xml version="1.0" standalone="no"?>
<!DOCTYPE svg PUBLIC "-//W3C//DTD SVG 20010904//EN"
 "http://www.w3.org/TR/2001/REC-SVG-20010904/DTD/svg10.dtd">
<svg version="1.0" width="500" height="500" viewBox="0 0 500 500" xmlns="http://www.w3.org/2000/svg">
<g transform="translate(0.000000,500.000000) scale(0.100000,-0.100000)"
fill="#000000" stroke="none">
<path d="M941 2946 l-54 -54 29 -4 29 -3 5 -286 5 -286 27 -40 c14 -22 43 -48
65 -59 54 -26 181 -31 238 -10 55 21 111 83 122 133 4 21 8 126 8 233 l0 195
-55 0 -55 0 -5 -212 -5 -213 -27 -26 c-19 -20 -39 -28 -75 -31 -64 -5 -108 21
-122 74 -6 22 -11 143 -11 286 l0 247 33 0 32 0 -55 55 c-30 30 -60 55 -65 55
-6 0 -35 -24 -64 -54z"/>
<path d="M2537 2804 c-4 -4 -7 -141 -7 -305 0 -293 0 -298 21 -304 11 -4 36
-4 55 -1 l33 7 3 107 3 107 68 -108 c48 -75 76 -109 93 -113 29 -7 94 3 94 15
0 5 -33 60 -74 122 l-74 113 64 73 c35 41 64 80 64 88 0 11 -13 15 -54 15
l-54 0 -64 -86 -63 -85 -5 178 -5 178 -45 3 c-25 2 -49 0 -53 -4z"/>
<path d="M3290 2505 l0 -305 25 -6 c14 -3 36 -3 50 0 l25 6 0 305 0 305 -50 0
-50 0 0 -305z"/>
<path d="M3555 2797 c-3 -7 -4 -143 -3 -302 l3 -290 26 -9 c14 -5 38 -6 53 -2
l26 6 0 305 0 305 -50 0 c-32 0 -52 -5 -55 -13z"/>
<path d="M3026 2787 c-13 -9 -17 -23 -14 -52 2 -33 8 -41 31 -49 17 -6 37 -6
55 0 23 8 27 16 30 52 3 38 0 43 -23 52 -35 13 -58 13 -79 -3z"/>
<path d="M1755 2615 c-16 -8 -40 -22 -51 -30 -20 -15 -22 -14 -28 10 -6 24
-11 26 -49 23 l-42 -3 -3 -283 -2 -282 25 -10 c14 -5 38 -7 55 -4 l30 7 0 98
0 98 36 -24 c27 -18 50 -25 87 -25 63 0 105 25 137 82 22 37 25 55 25 138 0
105 -18 156 -67 193 -34 26 -114 32 -153 12z m72 -90 c31 -22 49 -107 34 -163
-24 -86 -80 -106 -138 -50 -31 30 -33 36 -33 98 0 59 3 69 28 92 43 41 74 47
109 23z"/>
<path d="M2192 2624 c-12 -3 -38 -20 -57 -38 -30 -29 -35 -40 -35 -79 0 -59
37 -104 110 -132 85 -33 104 -76 47 -103 -23 -11 -35 -11 -80 3 -28 9 -58 19
-64 21 -9 4 -13 -6 -13 -36 0 -37 3 -42 35 -56 44 -18 148 -18 183 0 54 28 76
62 76 117 0 42 -5 54 -30 79 -16 17 -56 40 -88 53 -67 25 -87 47 -70 75 12 19
85 23 137 8 26 -8 27 -7 27 27 0 19 -7 40 -15 47 -16 13 -124 22 -163 14z"/>
<path d="M3984 2620 c-12 -4 -31 -21 -43 -36 l-21 -27 0 32 c0 30 -1 31 -45
31 l-45 0 0 -210 0 -210 26 -6 c15 -4 39 -3 53 2 26 9 26 10 31 146 5 126 7
139 28 160 16 17 34 23 65 23 l42 0 3 44 c2 28 -1 47 -10 52 -16 11 -57 10
-84 -1z"/>
<path d="M3014 2607 c-2 -7 -3 -100 -2 -207 l3 -195 26 -9 c14 -5 38 -6 53 -2
l26 6 0 210 0 210 -50 0 c-32 0 -52 -5 -56 -13z"/>
</g>
</svg>
